[CODE]Format : AVI
Format/Info : Audio Video Interleave
Format profile : OpenDML
File size : 1.03 GiB
Duration : 2h 9mn
Overall bit rate : 1 140 Kbps
Writing application : Lavf52.39.1

Video
ID : 0
Format : MPEG-4 Visual
Format settings, BVOP : 1
Format settings, QPel : No
Format settings, GMC : No warppoints
Format settings, Matrix : Default (H.263)
Muxing mode : Packed bitstream
Codec ID : DX50
Codec ID/Hint : DivX 5
Duration : 2h 9mn
Bit rate : 65.7 Kbps
Width : 640 pixels
Height : 272 pixels
Display aspect ratio : 2.35:1
Frame rate : 23.976 fps
Color space : YUV
Chroma subsampling : 4:2:0
Bit depth : 8 bits
Scan type : Progressive
Compression mode : Lossy
Bits/(Pixel*Frame) : 0.016
Stream size : 60.8 MiB (6%)
Writing library : DivX 6.8.5 (UTC 2009-08-20)

Audio
ID : 1
Format : MPEG Audio
Format version : Version 1
Format profile : Layer 2
Codec ID : 50
Duration : 2h 9mn
Bit rate mode : Constant
Bit rate : 64.0 Kbps
Channel(s) : 2 channels
Sampling rate : 48.0 KHz
Compression mode : Lossy
Stream size : 1.16 MiB (0%)
Alignment : Aligned on interleaves
Interleave, duration : 78 ms (1.87 video frames)[/CODE]